<svg width="30" height="30" viewBox="0 0 30 30" fill="none" xmlns="http://www.w3.org/2000/svg">
<path d="M20.0303 27.0322H9.92285C7.76953 27.0322 6.01758 25.2803 6.01758 23.127V13.4707C6.01758 11.3174 7.76953 9.56543 9.92285 9.56543H20.0303C22.1836 9.56543 23.9355 11.3174 23.9355 13.4707V23.127C23.9355 25.2803 22.1836 27.0322 20.0303 27.0322ZM9.92285 12.1816C9.21094 12.1816 8.63086 12.7617 8.63086 13.4736V23.1299C8.63086 23.8418 9.21094 24.4219 9.92285 24.4219H20.0303C20.7422 24.4219 21.3223 23.8418 21.3223 23.1299V13.4707C21.3223 12.7588 20.7422 12.1787 20.0303 12.1787H9.92285V12.1816ZM26.7861 22.2539C26.0654 22.2539 25.4795 21.668 25.4795 20.9473V15.6533C25.4795 14.9326 26.0654 14.3467 26.7861 14.3467C27.5068 14.3467 28.0928 14.9326 28.0928 15.6533V20.9473C28.0928 21.6709 27.5068 22.2539 26.7861 22.2539ZM3.27246 22.2539C2.55176 22.2539 1.96582 21.668 1.96582 20.9473V15.6533C1.96582 14.9326 2.55176 14.3467 3.27246 14.3467C3.99316 14.3467 4.5791 14.9326 4.5791 15.6533V20.9473C4.5791 21.6709 3.99609 22.2539 3.27246 22.2539Z" fill="white"/>
<path d="M14.9766 12.1816C14.2559 12.1816 13.6699 11.5957 13.6699 10.875V7.01074C13.6699 6.29004 14.2559 5.7041 14.9766 5.7041C15.6973 5.7041 16.2832 6.29004 16.2832 7.01074V10.875C16.2832 11.5957 15.6973 12.1816 14.9766 12.1816Z" fill="white"/>
<path d="M14.9766 8.10352C13.5352 8.10352 12.3633 6.93164 12.3633 5.49023C12.3633 4.04883 13.5352 2.87695 14.9766 2.87695C16.418 2.87695 17.5898 4.04883 17.5898 5.49023C17.5898 6.93164 16.418 8.10352 14.9766 8.10352ZM11.6895 19.79C10.8662 19.79 10.1982 19.1221 10.1982 18.2988C10.1982 17.4756 10.8662 16.8076 11.6895 16.8076C12.5127 16.8076 13.1807 17.4756 13.1807 18.2988C13.1807 19.1221 12.5127 19.79 11.6895 19.79ZM18.249 19.79C17.4258 19.79 16.7578 19.1221 16.7578 18.2988C16.7578 17.4756 17.4258 16.8076 18.249 16.8076C19.0723 16.8076 19.7402 17.4756 19.7402 18.2988C19.7402 19.1221 19.0723 19.79 18.249 19.79Z" fill="white"/>
</svg>
