<svg width="30" height="30" viewBox="0 0 30 30" fill="none" xmlns="http://www.w3.org/2000/svg">
<g id="Frame">
<path id="Vector" d="M5 23.3333C5 24.2541 5.74578 25 6.66666 25H23.3334C24.2541 25 25 24.2541 25 23.3333V18.7499C25 17.8292 24.2541 17.0833 23.3334 17.0833H18.3333V12.7084C18.3333 12.1334 17.8667 11.6666 17.2917 11.6666C16.7167 11.6666 16.25 12.1334 16.25 12.7084V17.0833H6.66666C5.74594 17.0833 5 17.8292 5 18.7501V23.3333ZM7.08328 21.0416C7.08328 20.4666 7.54996 19.9999 8.12506 19.9999C8.70001 19.9999 9.16667 20.4666 9.16667 21.0416C9.16667 21.6166 8.70001 22.0833 8.12506 22.0833C7.54996 22.0834 7.08328 21.6166 7.08328 21.0416ZM10.8333 21.0416C10.8333 20.4666 11.3 19.9999 11.875 19.9999C12.4499 19.9999 12.9167 20.4666 12.9167 21.0416C12.9167 21.6166 12.4499 22.0833 11.875 22.0833C11.3 22.0834 10.8333 21.6166 10.8333 21.0416ZM17.2917 8.33326C14.8749 8.33326 12.9167 10.2917 12.9167 12.7084C12.9167 13.2833 13.3834 13.75 13.9584 13.75C14.5334 13.75 15 13.2833 15 12.7084C15 11.4416 16.025 10.4167 17.2918 10.4167C18.5584 10.4167 19.5833 11.4416 19.5833 12.7084C19.5833 13.2833 20.0501 13.75 20.6251 13.75C21.2 13.75 21.6667 13.2833 21.6667 12.7084C21.6667 10.2917 19.7084 8.33326 17.2917 8.33326ZM17.2917 5C13.0334 5 9.58331 8.45003 9.58331 12.7084C9.58331 13.2833 10.0499 13.75 10.6251 13.75C11.2001 13.75 11.6667 13.2833 11.6667 12.7084C11.6667 9.59999 14.1833 7.08341 17.2916 7.08341C20.3999 7.08341 22.9166 9.59999 22.9166 12.7084C22.9166 13.2833 23.3834 13.75 23.9584 13.75C24.5334 13.75 25 13.2833 25 12.7084C25 8.45003 21.5504 5 17.2917 5Z" fill="#1FFACE"/>
</g>
</svg>
