<svg width="30" height="30" viewBox="0 0 30 30" fill="none" xmlns="http://www.w3.org/2000/svg">
<path d="M24 24.8039H20.3662C20.2982 24.8048 20.2321 24.7849 20.1798 24.7479C20.1275 24.7109 20.0926 24.6592 20.0812 24.6022C20.0812 24.4711 20.1762 24.3702 20.3662 24.3702H24V22.716H15.2481V16.1395C15.608 16.0222 15.9159 15.8124 16.1287 15.5393C16.3416 15.2663 16.4489 14.9437 16.4356 14.6164V6.87997C16.4565 6.65527 16.4223 6.42934 16.3354 6.21638C16.2485 6.00342 16.1106 5.80804 15.9305 5.64253C15.7504 5.47701 15.5319 5.34493 15.2888 5.25461C15.0457 5.16428 14.7832 5.11765 14.5178 5.11765C14.2525 5.11765 13.99 5.16428 13.7469 5.25461C13.5037 5.34493 13.2852 5.47701 13.1051 5.64253C12.925 5.80804 12.7871 6.00342 12.7002 6.21638C12.6133 6.42934 12.5792 6.65527 12.6 6.87997V14.6164C12.6 14.9413 12.7126 15.259 12.9238 15.5298C13.135 15.8007 13.4354 16.0127 13.7875 16.1395V22.7362H5V24.0071H7.01875C7.08174 24.0071 7.14215 24.0284 7.18669 24.0662C7.23123 24.104 7.25625 24.1553 7.25625 24.2088C7.25625 24.2623 7.23123 24.3137 7.18669 24.3515C7.14215 24.3893 7.08174 24.4106 7.01875 24.4106H5V29H24V24.8039Z" fill="white"/>
<path d="M11.6087 14.1765C11.2601 13.8339 11.0677 13.4327 11.0542 13.0203V7.58823C10.7209 7.6704 10.4354 7.81983 10.2386 8.01522C10.0418 8.21062 9.94353 8.44199 9.95793 8.67635V13.0203C9.96322 13.3143 10.1358 13.5963 10.4415 13.8104C10.7473 14.0245 11.1638 14.1552 11.6087 14.1765Z" fill="white"/>
<path d="M13.3125 20.9507V18.8344C11.8023 16.3443 9.42499 14.502 6.63879 13.6624C7.10233 15.3162 7.94793 16.8376 9.10727 18.1037C10.2666 19.3698 11.7072 20.3451 13.3125 20.9507Z" fill="white"/>
<path d="M15.6875 18.8344V20.9507C17.2929 20.3451 18.7334 19.3698 19.8928 18.1037C21.0521 16.8376 21.8977 15.3162 22.3612 13.6624C19.56 14.4725 17.173 16.3223 15.6875 18.8344Z" fill="white"/>
<path d="M19.0421 13.0203V8.67635C19.0567 8.44199 18.9576 8.21062 18.7593 8.01522C18.5609 7.81983 18.2732 7.6704 17.9373 7.58823V13.0203C17.9219 13.4313 17.733 13.8314 17.3914 14.1765C17.8374 14.1532 18.2541 14.0216 18.5595 13.8077C18.8649 13.5938 19.0371 13.313 19.0421 13.0203Z" fill="white"/>
</svg>
