<svg width="30" height="30" viewBox="0 0 30 30" fill="none" xmlns="http://www.w3.org/2000/svg">
<g id="&#229;&#134;&#156;&#229;&#156;&#186;&#230;&#166;&#130;&#232;&#167;&#136;">
<g id="Vector">
<path d="M25.3663 12.7749C24.6348 11.4337 24.0026 10.0097 23.2541 8.68239C22.9631 8.17325 22.567 7.76669 22.1059 7.50373C20.4927 6.62579 18.8511 5.79969 17.1869 5.05655C16.6884 4.85262 16.1488 4.85262 15.6503 5.05655C14.0314 5.75821 12.4579 6.62579 10.8532 7.39312C10.2658 7.68736 9.7697 8.20028 9.43562 8.85867C8.38945 10.7044 7.81392 12.9719 6.03345 14.389H26.5117C26.0988 13.885 25.716 13.3456 25.3663 12.7749Z" fill="white"/>
<path d="M7.03143 23.6386H13.5664V22.6708C13.5664 20.8561 13.5863 19.0415 13.5664 17.2268C13.5664 16.5079 13.7706 16.2728 14.3489 16.2901C15.7665 16.3247 17.1841 16.3143 18.6017 16.2901C19.0921 16.2901 19.2651 16.4975 19.2566 17.0989C19.2311 18.7096 19.2566 20.3238 19.2566 21.938V23.6317H25.7661V15.267H7.03143V23.6386Z" fill="white"/>
</g>
</g>
</svg>
