<svg width="30" height="31" viewBox="0 0 30 31" fill="none" xmlns="http://www.w3.org/2000/svg">
<g id="&#229;&#134;&#156;&#228;&#186;&#139;&#228;&#184;&#173;&#229;&#191;&#131;">
<g id="Vector">
<path d="M16.7996 13.1196H16.4688C15.659 13.1116 14.8751 13.4053 14.2698 13.9433C13.6645 14.4814 13.281 15.2254 13.194 16.0305C13.1451 16.4567 13.1851 16.8884 13.3115 17.2983C13.4379 17.7083 13.648 18.0875 13.9284 18.4122C14.1972 18.7496 14.5316 19.029 14.9114 19.2337C15.2911 19.4383 15.7084 19.564 16.138 19.603H16.4688C17.279 19.6125 18.0637 19.3194 18.6693 18.7811C19.2749 18.2427 19.658 17.4979 19.7436 16.6921C19.8177 15.8299 19.551 14.9729 19.0006 14.3051C18.4503 13.6372 17.6601 13.2116 16.7996 13.1196Z" fill="#1FFACE"/>
<path d="M2.90659 18.2799V18.346L3.50862 19.7353L11.1895 22.3816L9.58845 19.4707L2.90659 18.2799Z" fill="#1FFACE"/>
<path d="M20.8815 8.09168L10.9248 12.1934H10.7925C10.6986 12.1934 10.6074 12.1623 10.5332 12.1048C10.459 12.0473 10.4059 11.9668 10.3825 11.8759C10.359 11.785 10.3664 11.6889 10.4035 11.6027C10.4406 11.5164 10.5053 11.445 10.5874 11.3995L20.6102 7.2978L20.2133 5.97466L19.942 4.9823L5.84396 10.738L10.2566 18.8753L12.4597 22.9109V22.977L14.2658 26.351L25.0891 21.9185L22.4428 13.0535L20.8815 8.09168ZM20.5441 16.8244C20.4402 17.8472 19.9578 18.7942 19.1916 19.4797C18.4253 20.1651 17.4306 20.5394 16.4026 20.5292H16.0057C14.911 20.3919 13.9077 19.8489 13.194 19.0076C12.521 18.1416 12.189 17.0588 12.2612 15.9644C12.3651 14.9416 12.8475 13.9946 13.6137 13.3091C14.3799 12.6237 15.3746 12.2494 16.4026 12.2596H16.7996C17.3462 12.3109 17.8772 12.47 18.362 12.7277C18.8467 12.9854 19.2756 13.3367 19.6238 13.7611C19.9719 14.1856 20.2325 14.6749 20.3905 15.2007C20.5485 15.7265 20.6007 16.2783 20.5441 16.8244Z" fill="#1FFACE"/>
<path d="M25.8234 8.35631C24.8504 7.17966 23.4625 6.42178 21.9466 6.23928C21.7029 6.20624 21.4559 6.20624 21.2123 6.23928L23.283 13.1858L24.4209 16.8244C25.1465 16.357 25.7599 15.7352 26.2174 15.0033C26.6748 14.2713 26.965 13.4474 27.0672 12.5904C27.2102 11.0718 26.765 9.55626 25.8234 8.35631Z" fill="#1FFACE"/>
</g>
</g>
</svg>
