<svg width="30" height="31" viewBox="0 0 30 31" fill="none" xmlns="http://www.w3.org/2000/svg">
<g id="&#231;&#167;&#141;&#230;&#164;&#141;&#228;&#184;&#173;&#229;&#191;&#131;">
<g id="Vector">
<path d="M13.9328 16.7222C13.6237 16.3398 13.2284 16.0856 12.8003 15.9941C12.5105 15.9249 12.2144 15.9073 11.9207 15.9421C11.8931 16.3068 11.9071 16.6745 11.9622 17.0343C12.0092 17.368 12.1094 17.6864 12.2568 17.9704C12.3397 18.1265 12.4642 18.2825 12.5513 18.4385C12.8576 18.8231 13.2522 19.0777 13.6798 19.1667C13.9695 19.2357 14.2656 19.2532 14.5593 19.2187C14.5662 18.8538 14.5523 18.4888 14.5178 18.1265C14.4275 17.6008 14.2253 17.1156 13.9328 16.7222Z" fill="white"/>
<path d="M14.273 11.1572H14.1901C13.6824 11.31 13.2176 11.6337 12.8459 12.0934C12.4659 12.5527 12.2167 13.1556 12.1365 13.8097C12.0553 14.2532 12.0413 14.7119 12.095 15.1619C12.4577 15.1965 12.8224 15.1791 13.1819 15.1099C13.5074 15.0187 13.8187 14.8606 14.1029 14.6418C14.2837 14.5334 14.4415 14.373 14.5634 14.1738C14.9355 13.7273 15.1853 13.1448 15.277 12.5095C15.3538 12.0652 15.3678 11.6076 15.3185 11.1572C14.9728 11.0792 14.6187 11.0792 14.273 11.1572Z" fill="white"/>
<path d="M11.2072 4.44804H6.80539C6.95038 4.86259 7.04949 5.30005 7.09995 5.74827C7.29596 7.10397 7.39317 8.47921 7.39036 9.857C7.41395 11.2358 7.31656 12.6136 7.09995 13.9657C7.02394 14.4066 6.92556 14.8408 6.80539 15.266H11.203C11.0597 14.851 10.962 14.4136 10.9126 13.9657C10.7129 12.6106 10.6143 11.2351 10.618 9.857C10.5936 8.47793 10.6924 7.09976 10.9126 5.74827C10.9773 5.30401 11.0759 4.86859 11.2072 4.44804Z" fill="white"/>
<path d="M6.22458 11.2612C6.13745 11.1052 6.01299 10.9492 5.93002 10.7932C5.62089 10.4107 5.22554 10.1566 4.79743 10.065C4.50227 9.99381 4.20046 9.9763 3.90131 10.013C3.87259 10.3604 3.88659 10.7112 3.9428 11.0532V11.1572C4.03739 11.682 4.24058 12.1664 4.53191 12.5615C4.83814 12.946 5.23276 13.2007 5.66035 13.2896C5.85454 13.3347 6.05216 13.3521 6.24947 13.3416H6.53988C6.56961 12.977 6.55562 12.6089 6.49839 12.2494C6.4507 11.9035 6.35821 11.5697 6.22458 11.2612Z" fill="white"/>
<path d="M11.2072 15.786H6.80539C6.95038 16.2006 7.04949 16.6381 7.09995 17.0863C7.29596 18.442 7.39317 19.8172 7.39036 21.195C7.41395 22.5738 7.31656 23.9516 7.09995 25.3037C7.02394 25.7446 6.92556 26.1789 6.80539 26.604H11.203C11.0597 26.189 10.962 25.7516 10.9126 25.3037C10.7129 23.9486 10.6143 22.5731 10.618 21.195C10.5936 19.8159 10.6924 18.4378 10.9126 17.0863C10.9831 16.6438 11.0816 16.209 11.2072 15.786Z" fill="white"/>
<path d="M26.0844 11.1052C25.7341 11.0695 25.3817 11.087 25.0347 11.1572H24.9518C24.4518 11.3023 23.9902 11.6069 23.6117 12.0414C23.2305 12.5002 22.9798 13.1031 22.8982 13.7577C22.8214 14.2019 22.8074 14.6596 22.8567 15.1099C23.2208 15.1456 23.5869 15.1281 23.9478 15.0579C24.2728 14.9648 24.5838 14.8068 24.8688 14.5898C25.0488 14.4799 25.2063 14.3198 25.3293 14.1218C25.7 13.674 25.9495 13.092 26.0429 12.4575C26.1196 12.0132 26.1337 11.5555 26.0844 11.1052Z" fill="white"/>
<path d="M24.6987 16.7222C24.3925 16.3377 23.9979 16.083 23.5703 15.9941C23.2805 15.9251 22.9844 15.9076 22.6907 15.9421C22.6631 16.3068 22.6771 16.6745 22.7322 17.0343C22.7774 17.3686 22.8778 17.6874 23.0268 17.9704C23.1098 18.1265 23.2342 18.2825 23.3172 18.4385C23.6263 18.8209 24.0217 19.0751 24.4498 19.1667C24.7395 19.2358 25.0356 19.2533 25.3293 19.2187C25.3362 18.8538 25.3223 18.4888 25.2878 18.1265C25.1961 17.6003 24.9925 17.1151 24.6987 16.7222Z" fill="white"/>
<path d="M21.9772 4.39603H17.592C17.7353 4.81095 17.833 5.24836 17.8824 5.69626C18.0821 7.05141 18.1807 8.42692 18.177 9.80499C18.2014 11.1841 18.1026 12.5622 17.8824 13.9137C17.8075 14.3544 17.7105 14.7886 17.592 15.2139H21.9896C21.8467 14.7984 21.7477 14.3613 21.695 13.9137C21.503 12.5574 21.4058 11.1826 21.4046 9.80499C21.381 8.42621 21.4784 7.04836 21.695 5.69626C21.7689 5.25637 21.8631 4.82223 21.9772 4.39603Z" fill="white"/>
<path d="M21.9772 15.734H17.592C17.7353 16.149 17.833 16.5864 17.8824 17.0343C18.0821 18.3894 18.1807 19.7649 18.177 21.143C18.2014 22.5221 18.1026 23.9002 17.8824 25.2517C17.8075 25.6924 17.7105 26.1266 17.592 26.552H21.9896C21.8467 26.1365 21.7477 25.6994 21.695 25.2517C21.499 23.896 21.4018 22.5208 21.4046 21.143C21.381 19.7642 21.4784 18.3864 21.695 17.0343C21.7689 16.5944 21.8631 16.1602 21.9772 15.734Z" fill="white"/>
</g>
</g>
</svg>
