<svg width="30" height="30" viewBox="0 0 30 30" fill="none" xmlns="http://www.w3.org/2000/svg">
<g id="&#231;&#179;&#187;&#231;&#187;&#159;&#231;&#174;&#161;&#231;&#144;&#134;">
<path id="Vector" d="M25.2445 13.5532C25.1884 13.3139 25.0692 13.094 24.8993 12.9164C24.7294 12.7388 24.515 12.61 24.2784 12.5433L23.9454 12.4669C23.1253 12.2178 22.4313 11.6649 22.0052 10.9213C21.5791 10.1776 21.453 9.29928 21.6528 8.46579L21.7511 8.1492C21.8112 7.9111 21.807 7.66132 21.7389 7.42539C21.6708 7.18945 21.5412 6.97584 21.3635 6.80639C20.9814 6.51976 20.5781 6.26247 20.1572 6.03673C19.7485 5.78661 19.3215 5.56764 18.8799 5.3817C18.6451 5.31098 18.3956 5.30457 18.1575 5.36314C17.9194 5.42171 17.7013 5.54311 17.5261 5.71467L17.2914 5.96577C16.6697 6.5559 15.8451 6.88489 14.9879 6.88489C14.1307 6.88489 13.3061 6.5559 12.6844 5.96577L12.4606 5.72013C12.2854 5.54857 12.0673 5.42717 11.8292 5.3686C11.5911 5.31003 11.3416 5.31644 11.1068 5.38716C10.6616 5.57065 10.2309 5.7878 9.81863 6.03673C9.39729 6.26594 8.99401 6.52689 8.61228 6.8173C8.43264 6.98551 8.30142 7.19882 8.23229 7.43501C8.16317 7.67119 8.15867 7.9216 8.21926 8.16011L8.31752 8.47671C8.51531 9.30942 8.38758 10.1862 7.96043 10.9279C7.53329 11.6696 6.83898 12.2201 6.01946 12.4669L5.69195 12.5433C5.45638 12.6108 5.24312 12.74 5.07422 12.9176C4.90532 13.0951 4.78691 13.3145 4.73124 13.5532C4.67081 14.031 4.64708 14.5128 4.66028 14.9942C4.64828 15.4666 4.672 15.9392 4.73124 16.408C4.78307 16.6514 4.89971 16.8763 5.06882 17.0588C5.23793 17.2414 5.45323 17.3749 5.69195 17.4451L6.00854 17.5161C6.83402 17.7619 7.53371 18.3151 7.96332 19.0616C8.39294 19.808 8.51972 20.6909 8.31752 21.5282L8.21926 21.8447C8.15867 22.0833 8.16317 22.3337 8.23229 22.5699C8.30142 22.806 8.43264 23.0194 8.61228 23.1876C8.99362 23.4785 9.39694 23.7395 9.81863 23.9681C10.2295 24.21 10.6583 24.4199 11.1014 24.5959C11.3358 24.6667 11.5848 24.6737 11.8228 24.6161C12.0607 24.5585 12.279 24.4385 12.4551 24.2684L12.6789 24.05C13.3019 23.4579 14.1285 23.1278 14.9879 23.1278C15.8473 23.1278 16.6739 23.4579 17.2969 24.05L17.5207 24.2902C17.6967 24.4603 17.915 24.5804 18.153 24.6379C18.391 24.6955 18.64 24.6885 18.8744 24.6177C19.3174 24.431 19.7462 24.2121 20.1572 23.9627C20.5787 23.7337 20.982 23.4728 21.3635 23.1821C21.5427 23.0136 21.6736 22.8002 21.7426 22.5641C21.8117 22.3281 21.8165 22.0778 21.7565 21.8393L21.6583 21.5118C21.4561 20.6746 21.5828 19.7917 22.0125 19.0452C22.4421 18.2987 23.1418 17.7455 23.9672 17.4997L24.2838 17.4288C24.5221 17.3617 24.7377 17.2314 24.9078 17.0517C25.0779 16.872 25.1962 16.6495 25.25 16.408C25.3167 15.938 25.3477 15.4635 25.3428 14.9888C25.3464 14.5085 25.3135 14.0285 25.2445 13.5532ZM14.9715 18.1002C14.3125 18.1023 13.6677 17.9089 13.1187 17.5443C12.5696 17.1798 12.1412 16.6605 11.8875 16.0523C11.6338 15.444 11.5663 14.7742 11.6935 14.1276C11.8208 13.4809 12.137 12.8866 12.6023 12.4199C13.0675 11.9531 13.6608 11.6349 14.307 11.5055C14.9532 11.3761 15.6232 11.4414 16.2323 11.6931C16.8414 11.9448 17.362 12.3716 17.7284 12.9194C18.0948 13.4672 18.2903 14.1114 18.2903 14.7704C18.291 15.207 18.2058 15.6394 18.0394 16.043C17.873 16.4466 17.6287 16.8135 17.3205 17.1227C17.0124 17.4319 16.6463 17.6773 16.2432 17.845C15.8402 18.0128 15.4081 18.0995 14.9715 18.1002Z" fill="white"/>
</g>
</svg>
