<svg width="30" height="30" viewBox="0 0 30 30" fill="none" xmlns="http://www.w3.org/2000/svg">
<g id="Frame">
<g id="Vector">
<path d="M15.7142 10.4824C15.756 10.5565 15.8125 10.6219 15.8805 10.6748C15.9484 10.7277 16.0265 10.7672 16.1102 10.7908C16.1939 10.8145 16.2816 10.822 16.3683 10.8128C16.455 10.8037 16.539 10.778 16.6154 10.7374L18.6273 9.67174C18.704 9.63132 18.7717 9.57663 18.8265 9.51082C18.8813 9.44501 18.9222 9.36938 18.9467 9.28826C18.9712 9.20713 18.979 9.12212 18.9695 9.03808C18.96 8.95405 18.9335 8.87266 18.8915 8.79857L18.875 8.76952C18.7902 8.62017 18.6477 8.5095 18.4787 8.46183C18.3097 8.41415 18.1281 8.43337 17.9737 8.51526L15.9618 9.58094C15.8075 9.66273 15.693 9.80046 15.6435 9.9639C15.5939 10.1273 15.6134 10.3031 15.6977 10.4527L15.7142 10.4824ZM13.0284 8.39105L13.0615 8.40049C13.2304 8.44816 13.412 8.42896 13.5664 8.3471C13.7207 8.26524 13.8352 8.12742 13.8847 7.9639L14.5293 5.83255C14.5539 5.75152 14.5617 5.66658 14.5524 5.5826C14.543 5.49862 14.5166 5.41726 14.4747 5.34316C14.4328 5.26907 14.3762 5.20371 14.3082 5.15082C14.2402 5.09793 14.162 5.05855 14.0783 5.03493L14.0453 5.02549C13.8764 4.97804 13.695 4.99735 13.5408 5.07919C13.3866 5.16103 13.2723 5.29873 13.2228 5.46207L12.5782 7.59342C12.5287 7.75699 12.5483 7.9329 12.6327 8.08247C12.7172 8.23204 12.8595 8.34303 13.0284 8.39105ZM8.73303 8.50437C8.77479 8.57851 8.83125 8.64395 8.89918 8.69694C8.9671 8.74993 9.04515 8.78944 9.12887 8.81319C9.21258 8.83694 9.30031 8.84447 9.38704 8.83536C9.47377 8.82624 9.55779 8.80066 9.63429 8.76007L9.6643 8.74409C9.81884 8.6623 9.93348 8.52444 9.98302 8.36082C10.0326 8.19721 10.0129 8.02125 9.92845 7.87165L8.82683 5.92263C8.74209 5.77348 8.59969 5.66295 8.43088 5.61529C8.26207 5.56763 8.08062 5.58672 7.92633 5.66838L7.89631 5.68436C7.74211 5.76628 7.62777 5.90406 7.57839 6.06749C7.52901 6.23092 7.54862 6.40663 7.63291 6.55608L8.73303 8.50437ZM7.50384 11.344L7.5136 11.312C7.56282 11.1484 7.54288 10.9725 7.45816 10.823C7.37345 10.6736 7.23089 10.5628 7.06184 10.5151L4.86011 9.89185C4.69114 9.84393 4.50943 9.86292 4.35492 9.94465C4.20041 10.0264 4.08575 10.1642 4.03615 10.3277L4.02715 10.3597C3.92359 10.7011 4.12545 11.057 4.4774 11.1573L6.67913 11.7806C6.76294 11.8045 6.85081 11.8122 6.9377 11.8032C7.02459 11.7942 7.10878 11.7687 7.18547 11.7281C7.26215 11.6876 7.32981 11.6328 7.38458 11.5668C7.43934 11.5009 7.47937 11.4252 7.50384 11.344ZM7.87005 14.6006C7.78541 14.4511 7.64299 14.3403 7.47404 14.2923C7.30508 14.2444 7.12338 14.2633 6.96879 14.3449L4.95617 15.4113C4.87958 15.4517 4.81198 15.5064 4.75722 15.5721C4.70246 15.6378 4.66161 15.7134 4.63701 15.7944C4.61241 15.8754 4.60454 15.9603 4.61385 16.0443C4.62316 16.1282 4.64947 16.2096 4.69127 16.2837L4.70778 16.3128C4.7924 16.4622 4.93487 16.5731 5.10387 16.6209C5.27288 16.6687 5.45458 16.6496 5.60903 16.5678L7.62166 15.5021C7.77592 15.42 7.89027 15.2821 7.93964 15.1186C7.98902 14.955 7.96939 14.7792 7.88506 14.6296L7.87005 14.6006ZM20.727 15.3212H20.7105C20.0546 14.4175 19.1326 13.7261 18.0648 13.3371C16.997 12.9481 15.8329 12.8795 14.7243 13.1403C13.6156 13.4011 12.6138 13.9792 11.8495 14.7992C11.0852 15.6191 10.5939 16.643 10.4395 17.7373C9.66391 17.9318 8.98842 18.3938 8.53998 19.0365C8.09154 19.6792 7.90103 20.4583 8.00426 21.2274C8.10749 21.9965 8.49735 22.7026 9.10056 23.213C9.70377 23.7234 10.4788 24.003 11.28 23.9991H19.6554C19.796 24.0028 19.9366 23.9946 20.0756 23.9744C20.2385 23.9912 20.4028 23.9991 20.5672 23.9991C21.7337 23.9861 22.8491 23.5336 23.6766 22.7375C24.5041 21.9414 24.9786 20.8645 24.9993 19.7353C25.02 18.6061 24.5853 17.5136 23.7875 16.6896C22.9897 15.8656 21.8916 15.375 20.7262 15.3219L20.727 15.3212Z" fill="#1FFACE"/>
<path d="M8.48484 13.9554C8.8174 14.5195 9.31748 14.9833 9.92575 15.2917C10.3979 14.3314 11.1544 13.5152 12.1071 12.938C13.0599 12.3608 14.1698 12.0464 15.3077 12.0313C15.2589 11.5315 15.0906 11.048 14.815 10.6161C14.5394 10.1841 14.1635 9.81455 13.7146 9.53424C13.2657 9.25392 12.7551 9.06991 12.2199 8.99558C11.6847 8.92125 11.1383 8.95847 10.6206 9.10453C10.1028 9.2506 9.62665 9.50183 9.22673 9.83997C8.82681 10.1781 8.51317 10.5947 8.30863 11.0593C8.10408 11.524 8.01376 12.0251 8.04424 12.5262C8.07473 13.0273 8.22524 13.515 8.48484 13.9554Z" fill="#1FFACE"/>
</g>
</g>
</svg>
