<svg width="30" height="30" viewBox="0 0 30 30" fill="none" xmlns="http://www.w3.org/2000/svg">
<path d="M8.37964 10.0468L10.0468 8.38121C10.2657 8.16218 10.5256 7.98843 10.8117 7.86988C11.0977 7.75134 11.4044 7.69032 11.714 7.69032C12.0237 7.69032 12.3303 7.75134 12.6164 7.86988C12.9024 7.98843 13.1623 8.16218 13.3812 8.38121L20.0468 15.0468C20.4887 15.4888 20.7369 16.0882 20.7369 16.7132C20.7369 17.3382 20.4887 17.9376 20.0468 18.3796L18.3812 20.0484C18.1623 20.2674 17.9024 20.4412 17.6164 20.5597C17.3303 20.6783 17.0237 20.7393 16.714 20.7393C16.4044 20.7393 16.0977 20.6783 15.8117 20.5597C15.5256 20.4412 15.2657 20.2674 15.0468 20.0484L8.37964 13.3796C8.16061 13.1607 7.98686 12.9008 7.86831 12.6148C7.74977 12.3287 7.68875 12.0221 7.68875 11.7124C7.68875 11.4028 7.74977 11.0962 7.86831 10.8101C7.98686 10.524 8.16061 10.2641 8.37964 10.0453V10.0468ZM8.25079 16.5836L12.4164 20.7492L6.16719 27L2 22.8328L8.24921 16.5836H8.25079ZM16.5836 8.25079L22.8328 2L27 6.16719L20.7492 12.4164L16.582 8.24921V8.25079H16.5836ZM18.9626 22.5814L22.5814 18.9626C22.8004 18.7438 23.0603 18.5702 23.3464 18.4519C23.6324 18.3335 23.939 18.2726 24.2486 18.2728H24.8975C25.0304 18.2729 25.1603 18.3123 25.2707 18.3861C25.3812 18.4599 25.4673 18.5648 25.5183 18.6875C25.5692 18.8102 25.5826 18.9452 25.5569 19.0756C25.5312 19.2059 25.4674 19.3257 25.3737 19.4199L19.4214 25.3721C19.3275 25.4663 19.2077 25.5305 19.0772 25.5566C18.9468 25.5827 18.8115 25.5695 18.6885 25.5187C18.5656 25.4679 18.4604 25.3818 18.3864 25.2712C18.3124 25.1606 18.2729 25.0306 18.2728 24.8975V24.2486C18.2728 23.6232 18.5211 23.0229 18.9626 22.5814Z" fill="white"/>
</svg>
