<svg width="30" height="31" viewBox="0 0 30 31" fill="none" xmlns="http://www.w3.org/2000/svg">
<g id="&#228;&#189;&#156;&#231;&#137;&#169;&#228;&#184;&#173;&#229;&#191;&#131;">
<path id="Vector" d="M14.0711 18.6733C14.0711 18.6733 11.4639 20.9944 7.17537 19.1663C2.88688 17.3383 3.27207 12.9168 6.93071 12.3509C10.5881 11.7851 11.9193 13.4475 11.9193 13.4475C11.9193 13.4475 9.82776 8.19294 13.7624 6.00729C14.6307 5.52424 15.6758 5.52926 16.5328 6.0349C20.2943 8.25568 18.4298 13.4664 18.4298 13.4664C18.4298 13.4664 20.5653 11.4012 24.0658 12.6069C25.6066 13.1916 26.919 15.0372 24.8889 17.3947C22.8588 19.7523 18.4486 20.7748 15.9807 18.7109C16.7511 17.0121 19.7259 14.3258 23.4711 14.2154C20.5302 14.2518 18.2203 14.3622 15.8577 16.9017C15.2981 14.2706 14.913 9.79391 15.1752 8.49657C14.6156 12.7913 14.5629 16.9757 14.5629 16.9757C14.5629 16.9757 12.4262 13.9218 6.54552 14.3246C9.97581 14.7813 13.1777 16.1877 14.0711 18.6733ZM6.19672 24.7145C5.85168 24.5853 5.7764 24.1299 6.06623 23.9015C7.35102 22.889 10.287 20.761 11.7186 21.2454C13.583 21.8752 14.7059 19.4361 17.1187 20.889C19.5314 22.3419 19.7221 20.953 21.0019 22.5239C21.7058 23.3883 22.2654 23.83 22.8275 24.1023C23.2315 24.298 23.1763 24.8852 22.7409 24.9893C19.3156 25.8086 12.1677 26.9428 6.19672 24.7145Z" fill="#1FFACE"/>
</g>
</svg>
